<svg width="1280" height="720" xmlns="http://www.w3.org/2000/svg" xmlns:xlink="http://www.w3.org/1999/xlink" overflow="hidden"><defs><clipPath id="clip0"><path d="M0 0 1280 0 1280 720 0 720Z" fill-rule="evenodd" clip-rule="evenodd"/></clipPath></defs><g clip-path="url(#clip0)"><rect x="0" y="0" width="1280" height="720" fill="#FFFFFF"/><path d="M64.5001 317.167C64.5001 305.201 74.2008 295.5 86.1672 295.5L247.833 295.5C259.799 295.5 269.5 305.201 269.5 317.167L269.5 403.833C269.5 415.799 259.799 425.5 247.833 425.5L86.1672 425.5C74.2008 425.5 64.5001 415.799 64.5001 403.833Z" stroke="#2F528F" stroke-width="1.33333" stroke-miterlimit="8" fill="#B4C7E7" fill-rule="evenodd"/><text fill="#385723" font-family="DengXian,DengXian_MSFontService,sans-serif" font-weight="700" font-size="24" transform="translate(119.761 368)">Scratch3</text><path d="M177.5 72.9997C177.5 68.3055 181.305 64.5001 186 64.5001L1169 64.5001C1173.69 64.5001 1177.5 68.3055 1177.5 72.9997L1177.5 107C1177.5 111.695 1173.69 115.5 1169 115.5L186 115.5C181.305 115.5 177.5 111.695 177.5 107Z" stroke="#2F528F" stroke-width="1.33333" stroke-miterlimit="8" fill="#C9C9C9" fill-rule="evenodd"/><text fill="#385723" font-family="DengXian,DengXian_MSFontService,sans-serif" font-weight="700" font-size="24" transform="translate(593.402 97)">Server(index.js)</text><path d="M420.5 317.167C420.5 305.201 430.201 295.5 442.167 295.5L602.833 295.5C614.799 295.5 624.5 305.201 624.5 317.167L624.5 403.833C624.5 415.799 614.799 425.5 602.833 425.5L442.167 425.5C430.201 425.5 420.5 415.799 420.5 403.833Z" stroke="#2F528F" stroke-width="1.33333" stroke-miterlimit="8" fill="#B4C7E7" fill-rule="evenodd"/><text fill="#385723" font-family="DengXian,DengXian_MSFontService,sans-serif" font-weight="700" font-size="24" transform="translate(449.628 368)">serverContlol</text><path d="M764.5 304.167C764.5 299.38 768.38 295.5 773.167 295.5L1005.83 295.5C1010.62 295.5 1014.5 299.38 1014.5 304.167L1014.5 338.833C1014.5 343.62 1010.62 347.5 1005.83 347.5L773.167 347.5C768.38 347.5 764.5 343.62 764.5 338.833Z" stroke="#2F528F" stroke-width="1.33333" stroke-miterlimit="8" fill="#B4C7E7" fill-rule="evenodd"/><text fill="#385723" font-family="DengXian,DengXian_MSFontService,sans-serif" font-weight="700" font-size="24" transform="translate(782.81 329)">arduinoSerialServer</text><path d="M104.254 267.104 206.548 132.711 200.382 128.017 222.102 125.072 225.048 146.792 218.881 142.098 116.587 276.491Z" stroke="#2F528F" stroke-width="1.33333" stroke-miterlimit="8" fill="#A9D18E" fill-rule="evenodd"/><path d="M306.448 129.467 204.805 264.352 210.994 269.016 189.288 272.067 186.237 250.361 192.426 255.025 294.07 120.139Z" stroke="#2F528F" stroke-width="1.33333" stroke-miterlimit="8" fill="#A9D18E" fill-rule="evenodd"/><text fill="#385723" font-family="DengXian,DengXian_MSFontService,sans-serif" font-weight="700" font-size="16" transform="matrix(0.611074 -0.791573 0.791573 0.611074 148.218 197)">pub<tspan x="49.5968" y="64.2467">recv</tspan></text><path d="M455.013 267.104 557.307 132.711 551.141 128.017 572.861 125.072 575.807 146.792 569.64 142.098 467.346 276.491Z" stroke="#2F528F" stroke-width="1.33333" stroke-miterlimit="8" fill="#A9D18E" fill-rule="evenodd"/><path d="M657.207 129.467 555.564 264.352 561.753 269.016 540.047 272.067 536.996 250.361 543.186 255.025 644.829 120.139Z" stroke="#2F528F" stroke-width="1.33333" stroke-miterlimit="8" fill="#A9D18E" fill-rule="evenodd"/><text fill="#385723" font-family="DengXian,DengXian_MSFontService,sans-serif" font-weight="700" font-size="16" transform="matrix(0.611074 -0.791573 0.791573 0.611074 498.977 197)">pub<tspan x="49.5968" y="64.2467">recv</tspan></text><path d="M827.22 267.313 929.514 132.92 923.347 128.227 945.068 125.281 948.013 147.001 941.847 142.308 839.553 276.7Z" stroke="#2F528F" stroke-width="1.33333" stroke-miterlimit="8" fill="#A9D18E" fill-rule="evenodd"/><path d="M1029.41 129.676 927.77 264.561 933.96 269.225 912.254 272.276 909.203 250.57 915.392 255.234 1017.04 120.348Z" stroke="#2F528F" stroke-width="1.33333" stroke-miterlimit="8" fill="#A9D18E" fill-rule="evenodd"/><text fill="#385723" font-family="DengXian,DengXian_MSFontService,sans-serif" font-weight="700" font-size="16" transform="matrix(0.611074 -0.791573 0.791573 0.611074 871.184 197)">pub<tspan x="49.5968" y="64.2467">recv</tspan></text><path d="M764.5 370C764.5 365.306 768.306 361.5 773 361.5L1006 361.5C1010.69 361.5 1014.5 365.306 1014.5 370L1014.5 404C1014.5 408.694 1010.69 412.5 1006 412.5L773 412.5C768.306 412.5 764.5 408.694 764.5 404Z" stroke="#2F528F" stroke-width="1.33333" stroke-miterlimit="8" fill="#B4C7E7" fill-rule="evenodd"/><text fill="#385723" font-family="DengXian,DengXian_MSFontService,sans-serif" font-weight="700" font-size="24" transform="translate(812.893 394)">pyHelloServer</text><text fill="#385723" font-family="DengXian,DengXian_MSFontService,sans-serif" font-weight="700" font-size="72" transform="matrix(6.12323e-17 1 -1 6.12323e-17 944.048 423)">…</text><path d="M638.5 313 736.5 313 736.5 305.5 751.5 320.5 736.5 335.5 736.5 328 638.5 328Z" stroke="#9DC3E6" stroke-width="1.33333" stroke-miterlimit="8" fill="#FF0000" fill-rule="evenodd"/><text font-family="DengXian,DengXian_MSFontService,sans-serif" font-weight="700" font-size="24" transform="translate(662.078 280)">popen<tspan x="14.2467" y="29">/kill</tspan></text><path d="M638.5 378 736.5 378 736.5 370.5 751.5 385.5 736.5 400.5 736.5 393 638.5 393Z" stroke="#9DC3E6" stroke-width="1.33333" stroke-miterlimit="8" fill="#FF0000" fill-rule="evenodd"/><text font-family="DengXian,DengXian_MSFontService,sans-serif" font-weight="700" font-size="24" transform="translate(654.855 344)">popen<tspan x="14.2467" y="29">/kill</tspan></text><text fill="#385723" font-family="DengXian,DengXian_MSFontService,sans-serif" font-weight="700" font-size="72" transform="matrix(6.12323e-17 1 -1 6.12323e-17 673.137 421)">…</text><path d="M1111.5 304C1111.5 299.306 1115.31 295.5 1120 295.5L1224 295.5C1228.69 295.5 1232.5 299.306 1232.5 304L1232.5 338C1232.5 342.694 1228.69 346.5 1224 346.5L1120 346.5C1115.31 346.5 1111.5 342.694 1111.5 338Z" stroke="#2F528F" stroke-width="1.33333" stroke-miterlimit="8" fill="#4472C4" fill-rule="evenodd"/><text fill="#385723" font-family="DengXian,DengXian_MSFontService,sans-serif" font-weight="700" font-size="24" transform="translate(1129.59 328)">arduino</text><path d="M1019.5 305.25 1095 305.25 1095 299.5 1106.5 311 1095 322.5 1095 316.75 1019.5 316.75Z" stroke="#2F528F" stroke-width="1.33333" stroke-miterlimit="8" fill="#FFFF00" fill-rule="evenodd"/><path d="M1106.5 342 1030.5 342 1030.5 347.5 1019.5 336.5 1030.5 325.5 1030.5 331 1106.5 331Z" stroke="#2F528F" stroke-width="1.33333" stroke-miterlimit="8" fill="#FFFF00" fill-rule="evenodd"/><text font-family="DengXian,DengXian_MSFontService,sans-serif" font-weight="700" font-size="24" transform="translate(1007.08 291)">Serial Port</text></g></svg>